<svg width="50" height="50" viewBox="0 0 50 50" fill="none" xmlns="http://www.w3.org/2000/svg">
<ellipse cx="17.5522" cy="21.9485" rx="3.02897" ry="6.271" fill="white"/>
<ellipse cx="32.4806" cy="21.9485" rx="3.02897" ry="6.271" fill="white"/>
<path d="M5.11182 36.1143L11.0075 32.1389C23.383 38.4995 34.8786 34.7892 39.0795 32.1389L44.7588 36.0023L18.4717 50.0001C19.0306 48.1897 20.3107 43.953 20.9598 41.4894C13.5172 40.6831 7.29339 37.57 5.11182 36.1143Z" fill="white"/>
<path d="M2.94821 16.1254V9.85442C12.5544 3.89698 20.7254 2.96753 23.6101 3.24748L23.9887 0H26.0441C26.0441 0.0933184 26.109 0.87346 26.3686 3.24748C38.1383 4.05375 45.0833 7.98805 47.0846 9.85442V16.1254C48.3827 16.1814 48.7613 16.8533 49.1399 17.3572C50.3299 19.3169 50.1135 23.4602 49.5186 25.4759C49.0426 27.0885 47.6976 27.4169 47.0846 27.3796V33.1467L41.243 29.2273V13.6618C39.1876 12.0941 34.0492 10.3024 32.8052 9.85442C24.9623 14.2217 18.6339 10.5823 17.2817 9.85442C13.9931 10.6607 10.2141 12.8033 8.73569 13.7738V29.2833L2.84003 33.2027V27.4356C1.97461 27.3236 1.27145 26.8197 0.838744 26.2038C0.406035 25.5879 0.189686 24.4121 0.0274201 22.7324C-0.134846 21.0526 0.46013 18.1411 0.83875 17.3012C1.14165 16.6293 2.37126 16.2374 2.94821 16.1254Z" fill="#32A5FA"/>
</svg>
